<?xml version="1.0" encoding="UTF-8"?>
<svg width="415px" height="58px" viewBox="0 0 415 58" version="1.1" xmlns="http://www.w3.org/2000/svg" xmlns:xlink="http://www.w3.org/1999/xlink">
    <title>Layer_1</title>
    <g id="Page-1" stroke="none" stroke-width="1" fill="none" fill-rule="evenodd">
        <g id="logopll_positivo" transform="translate(0.070000, 0.940000)" fill="#005487" fill-rule="nonzero">
            <g id="Layer_1" transform="translate(0.000000, 0.000000)">
                <g id="Group" transform="translate(0.000000, 0.000000)">
                    <path d="M89.07,20.52 C91.11,19.14 93,18.14 94.72,17.49 C96.44,16.85 98.12,16.52 99.77,16.52 C100.55,16.52 101.28,16.6 101.97,16.78 C102.65,16.95 103.35,17.23 104.05,17.61 L104.05,25.97 L98.52,25.97 L96.5,22.82 C95.13,22.87 93.82,22.99 92.58,23.17 C91.35,23.34 90.17,23.59 89.07,23.91 L89.07,50.03 L95.93,51.44 L95.93,55.72 L76.83,55.72 L76.83,51.44 L82.56,50.03 L82.56,23.38 L76.83,22.25 L76.83,18.25 L89.07,16.84 L89.07,20.52 L89.07,20.52 Z" id="Path"></path>
                    <polygon id="Path" points="145.38 55.73 145.38 50.92 166.14 21.88 153.34 21.88 151.69 25.88 146.48 25.88 146.48 17.44 174.34 17.44 174.34 22.17 153.18 51.24 168.12 51.24 169.62 46.11 174.83 46.11 174.83 55.72 145.38 55.72"></polygon>
                    <polygon id="Path" points="186.36 37.61 186.36 33.17 203.61 33.17 203.61 37.61"></polygon>
                    <polygon id="Path" points="226.27 50.76 240.4 50.76 242.7 43.65 247.83 43.65 247.83 55.72 213.59 55.72 213.59 51.44 219.32 50.03 219.32 5.7 213.59 4.29 213.59 0.01 231.96 0.01 231.96 4.29 226.27 5.7"></polygon>
                    <polygon id="Path" points="265.54 50.03 271.11 51.44 271.11 55.72 253.3 55.72 253.3 51.44 259.11 50.03 259.11 6.5 253.62 5.45 253.62 1.37 265.53 0 265.53 50.03"></polygon>
                    <path d="M309.74,35.7 C309.74,42.13 308.14,47.23 304.95,51 C301.76,54.77 297.44,56.65 292.01,56.65 C286.97,56.65 282.98,54.93 280.02,51.5 C277.06,48.07 275.58,43.4 275.58,37.51 C275.58,31.13 277.19,26.05 280.4,22.27 C283.62,18.49 287.93,16.59 293.35,16.59 C298.41,16.59 302.41,18.3 305.34,21.72 C308.26,25.14 309.74,29.8 309.74,35.7 Z M292.45,51.53 C295.71,51.53 298.17,50.28 299.84,47.78 C301.51,45.28 302.34,41.56 302.34,36.64 C302.34,31.58 301.56,27.84 299.98,25.44 C298.41,23.03 295.95,21.82 292.61,21.82 C289.43,21.82 287.01,23.11 285.35,25.68 C283.68,28.25 282.85,31.98 282.85,36.88 C282.85,41.75 283.65,45.41 285.25,47.87 C286.84,50.3 289.25,51.53 292.45,51.53 Z" id="Shape"></path>
                    <path d="M327.28,20.52 C329.33,19.14 331.21,18.14 332.94,17.49 C334.67,16.85 336.35,16.52 337.99,16.52 C338.77,16.52 339.51,16.6 340.19,16.78 C340.88,16.95 341.57,17.23 342.27,17.61 L342.27,25.97 L336.74,25.97 L334.72,22.82 C333.35,22.87 332.04,22.99 330.8,23.17 C329.56,23.34 328.39,23.59 327.28,23.91 L327.28,50.03 L334.15,51.44 L334.15,55.72 L315.05,55.72 L315.05,51.44 L320.78,50.03 L320.78,23.38 L315.05,22.25 L315.05,18.25 L327.28,16.84 L327.28,20.52 L327.28,20.52 Z" id="Path"></path>
                    <path d="M376.33,53.67 C374.39,54.64 372.38,55.36 370.29,55.83 C368.2,56.3 366,56.54 363.69,56.54 C358.74,56.54 354.84,54.89 352,51.61 C349.16,48.33 347.74,43.8 347.74,38.04 C347.74,31.63 349.4,26.46 352.73,22.52 C356.05,18.57 360.37,16.6 365.67,16.6 C367.56,16.6 369.35,16.81 371.06,17.22 C372.77,17.64 374.53,18.29 376.33,19.18 L376.33,25.88 L370.23,25.88 L368.5,21.24 L367.93,21.24 C363.65,21.24 360.34,22.54 358.01,25.14 C355.69,27.74 354.52,31.41 354.52,36.15 C354.52,40.94 355.7,44.52 358.05,46.89 C360.4,49.26 363.97,50.44 368.73,50.44 C370.02,50.44 371.29,50.37 372.55,50.24 C373.8,50.11 375.06,49.89 376.33,49.6 L376.33,53.67 L376.33,53.67 Z" id="Path"></path>
                    <path d="M12.68,4.89 L16.4,4.89 C20.54,4.89 23.51,5.66 25.3,7.2 C27.09,8.73 27.99,11.21 27.99,14.63 C27.99,18.16 27,20.8 25,22.54 C23.01,24.29 19.81,25.27 15.86,25.27 C15.86,25.27 15.83,26.79 15.83,27.91 C20.99,30.03 27.28,28.79 30.64,26.18 C33.99,23.57 35.66,19.64 35.66,14.39 C35.66,10.89 34.81,7.94 33.1,5.55 C31.39,3.15 29.01,1.55 25.97,0.74 C24.92,0.47 23.63,0.28 22.11,0.17 C20.59,0.06 18.38,0.01 15.47,0.01 L0,0.01 L0,4.29 L5.74,5.7 L5.74,50.12 L0,51.53 L0,55.81 L18.38,55.81 L18.38,51.53 L12.69,50.12 L12.69,4.89 L12.68,4.89 Z" id="Path"></path>
                    <g transform="translate(39.600000, 0.010000)" id="Path">
                        <polygon points="9.41 11.26 17.69 0 23.38 3.23 13.12 13.16"></polygon>
                        <path d="M9.47,24.16 C10.74,22.27 12.96,21.47 15.71,21.47 C18.18,21.47 20.09,22.26 21.4,23.83 C22.72,25.41 23.38,27.67 23.38,30.63 L23.38,30.91 L8.82,32.41 L8.82,36.36 L28.81,36.36 C29.33,35.71 30.35,34.14 30.78,33.45 C30.78,28.04 29.58,23.87 27.16,20.96 C24.75,18.03 21.32,16.58 16.88,16.58 C11.52,16.58 7.37,18.44 4.42,22.17 C1.47,25.89 1.42108547e-14,31.15 1.42108547e-14,37.94 C1.42108547e-14,44.08 1.44,48.73 4.32,51.9 C7.2,55.06 11.44,56.64 17.04,56.64 C19.17,56.64 21.23,56.39 23.24,55.89 C25.24,55.39 27.2,54.64 29.11,53.65 L29.11,49.77 C27.55,50.04 26.03,50.24 24.55,50.37 C23.07,50.5 21.58,50.57 20.07,50.57 C15.81,50.57 12.55,49.48 10.27,47.3 C8,45.12 6.84,40.47 6.68,37.33 C6.54,34.23 7.42,27.2 9.47,24.16 Z"></path>
                    </g>
                    <path d="M117.52,24.17 C118.8,22.28 121.01,21.48 123.76,21.48 C126.24,21.48 128.13,22.27 129.45,23.84 C130.77,25.42 131.43,27.68 131.43,30.64 L131.43,30.92 L116.87,32.42 L116.87,36.37 L136.86,36.37 C137.38,35.72 138.4,34.15 138.83,33.46 C138.83,28.05 137.62,23.88 135.21,20.97 C132.8,18.04 129.38,16.59 124.93,16.59 C119.58,16.59 115.42,18.45 112.48,22.18 C109.53,25.9 108.05,31.16 108.05,37.95 C108.05,44.09 109.49,48.74 112.37,51.91 C115.25,55.07 119.49,56.65 125.09,56.65 C127.21,56.65 129.28,56.4 131.29,55.9 C133.29,55.4 135.25,54.65 137.16,53.66 L137.16,49.78 C135.6,50.05 134.08,50.25 132.6,50.38 C131.12,50.51 129.63,50.58 128.12,50.58 C123.87,50.58 120.61,49.49 118.33,47.31 C116.06,45.13 114.9,40.48 114.74,37.34 C114.58,34.24 115.47,27.21 117.52,24.17 Z" id="Path"></path>
                    <path d="M401.95,37.31 L401.95,29.8 C401.95,26.62 401.42,24.42 400.38,23.2 C399.33,21.97 397.46,21.36 394.77,21.36 C394.69,21.36 394.33,21.38 393.7,21.42 C393.07,21.46 392.48,21.49 391.94,21.52 L390.29,25.92 L383.71,25.92 L383.71,20.63 C385.95,19.2 388.16,18.17 390.35,17.52 C392.54,16.87 394.93,16.55 397.51,16.55 C399.94,16.55 401.97,16.91 403.61,17.64 C405.25,18.37 406.49,19.47 407.32,20.95 C407.76,21.65 408.06,22.6 408.23,23.8 C408.41,25 408.5,27.03 408.5,29.88 L408.5,31.62 L408.5,49.83 L414.19,50.96 L414.19,55.04 L401.95,56.49 L401.95,53.22 C400.74,54.35 399.34,55.21 397.73,55.8 C396.13,56.39 394.37,56.69 392.46,56.69 C388.85,56.69 386.01,55.64 383.92,53.54 C381.84,51.44 380.79,48.6 380.79,45.02 C380.79,40.71 382.18,37.65 384.95,35.83 C387.72,34.02 393.87,33.11 400.13,33.11 C400.13,34.13 400.13,36.42 400.09,37.06 C396.08,37.41 392.01,38.47 390.51,39.3 C388.66,40.32 387.72,42.06 387.72,44.51 C387.72,46.53 388.38,48.08 389.69,49.17 C390.99,50.26 392.84,50.81 395.24,50.81 C395.99,50.81 396.86,50.75 397.84,50.63 C398.82,50.51 400.19,50.3 401.94,50.01 L401.94,37.31" id="Path"></path>
                </g>
            </g>
        </g>
    </g>
</svg>